<?xml version="1.0" encoding="utf-8"?>
<!-- Generator: Adobe Illustrator 19.2.1, SVG Export Plug-In . SVG Version: 6.00 Build 0)  -->
<svg version="1.1" id="layer" xmlns="http://www.w3.org/2000/svg" xmlns:xlink="http://www.w3.org/1999/xlink" x="0px" y="0px"
	 viewBox="0 0 652 652" style="enable-background:new 0 0 652 652;" xml:space="preserve">
<style type="text/css">
	.st0{fill:#231F20;}
	.st1{fill:#ED1D24;}
</style>
<polygon class="st0" points="295.8,356.4 299.1,308 298.9,308 281.6,356.4 249.7,356.4 249.5,281.7 275.9,281.7 272.3,328.6 
	272.5,328.6 289.3,281.7 320,281.7 316.9,328.6 317.1,328.6 333.4,281.7 359.8,281.7 327.7,356.4 "/>
<path class="st0" d="M373.2,337.9L373.2,337.9c-1,4.3-2.9,7.2-7.2,7.2c-3.8,0-5.5-2.2-4.8-5.5c0.7-2.9,2.9-6,9.4-6h3.4L373.2,337.9z
	 M376.1,324.1L376.1,324.1h-2.9c-19.4,0-30.9,5.3-33.8,18c-2.2,10.3,4.1,15.8,14.6,15.8c5.8,0,11.5-1.7,16.3-6.5l-0.5,5h21.8l7.4-35
	c2.6-12.2-2.4-18.4-22.3-18.4c-13.2,0-26.6,2.9-30.5,16.8H367c1.2-4.3,3.1-5.3,6.2-5.3c3.6,0,4.6,1.7,4.1,4.1L376.1,324.1z"/>
<path class="st0" d="M427.4,330.3L427.4,330.3c1-4.6,1.2-5.7,2.2-7.9c1.2-3.1,3.6-4.8,6.2-4.8c5.3,0,5,4.6,3.1,12.7
	c-1.4,7.2-3.4,12.9-8.6,12.9c-2.9,0-3.6-1.2-4.1-2.9C425.7,338.9,426.2,335.8,427.4,330.3 M396.7,356.4L396.7,356.4h23.7l1.7-6
	c3.1,5.7,8.6,7.4,14.4,7.4c12.7,0,23.7-9.6,27.6-28c4.3-19.6-4.3-26.8-15.6-26.8c-5.8,0-11.5,1.7-16.8,6.2l6-27.5h-24.9L396.7,356.4
	z"/>
<path class="st0" d="M472.5,319.7L472.5,319.7h-6.7l3.4-15.3h6.7l1.7-8.4l26.9-8.6l-3.6,17h11.3l-3.1,15.3h-11.3l-3.6,15.8
	c-0.7,4.1,0.2,5.3,3.1,5.3c1.9,0,3.8,0,6.2-0.5l-3.1,15.3c-6,1.2-12.2,2.2-17,2.2c-9.8,0-18.2-2.9-15.8-14.6L472.5,319.7z"/>
<path class="st0" d="M531.5,324.1L531.5,324.1l0.2-0.7c1-5,4.3-7.7,8.2-7.7c4.1,0,6,2.6,5,7.7l-0.2,0.7H531.5z M541.3,339.6
	L541.3,339.6c-1.4,3.8-4.6,5.5-7.2,5.5c-5,0-6.5-2.6-5.3-8.6l0.2-1.7h35.7l1-3.4c3.8-18.4-3.4-28.5-23-28.5
	c-18.7,0-32.6,9.3-36.4,27.1c-4.6,21.1,7.7,27.8,22.8,27.8c19.4,0,29.7-6.5,34.3-18.2H541.3z"/>
<path class="st0" d="M603.2,325.7L603.2,325.7c1.2-6.5,1-10.1-3.4-10.1c-4.1,0-6.7,2.2-9.4,15.3c-2.6,12.2-1,14.1,2.9,14.1
	c4.1,0,5.8-3.1,7.7-9.8h23.3c-3.4,14.4-14.1,22.5-34.8,22.5c-16.1,0-28.3-6.7-24-27.8c3.8-17.7,18-27.1,36.4-27.1
	c20.1,0,26.6,8.6,24.2,22.8H603.2z"/>
<path class="st0" d="M261.7,387.8L261.7,387.8c0.2-2.4-1.9-3.8-4.3-3.8c-5.8,0-7.9,5.3-8.6,9.3c-1.2,4.8-0.7,9.3,4.3,9.3
	c2.6,0,5-1.2,6-3.6h3.4c-1,3.8-5.5,6.5-10.1,6.5c-7,0-8.4-5.7-7.2-12.2c1.4-5.7,5.3-12.2,12.9-12c4.6,0,7.4,2.2,7,6.5H261.7z"/>
<path class="st0" d="M278.5,393.3L278.5,393.3c1-5,3.4-9.3,9.1-9.3c6,0,6.5,4.3,5.3,9.3c-1,4.8-3.4,9.3-9.1,9.3
	C277.8,402.6,277.3,398.1,278.5,393.3 M274.9,393.3L274.9,393.3c-1.4,6.9,1,12.2,8.2,12.2c7.4,0,11.7-5.3,13.2-12.2
	c1.7-6.7-0.7-12-7.9-12C280.9,381.3,276.6,386.6,274.9,393.3"/>
<path class="st0" d="M314.2,384.4L314.2,384.4h5.3c3.6,0.2,4.1,1.9,3.6,3.6c-0.2,1.9-1.4,3.6-5,3.6h-5.5L314.2,384.4z M316.6,394.5
	L316.6,394.5c1.2,0,2.6,0,3.4,1c0.7,1.2,0.5,3.1,0.2,5.3c-0.2,1.4,0,2.9,0,4.3h3.4c-0.5-2.2,0-4.8,0-6.9c0.2-2.6,0.2-4.3-2.6-4.8
	l0.2-0.2c2.6-0.5,4.8-2.6,5.5-5.5c1-4.6-2.9-5.7-6.7-5.7h-8.4l-5,23.2h3.4l2.2-10.5H316.6z"/>
<path class="st0" d="M342.3,391.8L342.3,391.8l1.7-7.4h5c0.5,0,4.3-0.2,3.4,3.8c-0.7,3.8-4.6,3.6-4.8,3.6H342.3z M336.3,405
	L336.3,405h3.4l2.2-10.3h4.3c4.3,0,8.6-1.7,9.8-6.5c1-5-2.4-6.7-6.7-6.5h-7.9L336.3,405z"/>
<path class="st0" d="M369.2,393.3L369.2,393.3c1-5,3.4-9.3,9.4-9.3c5.8,0,6.2,4.3,5.3,9.3c-1.2,4.8-3.4,9.3-9.4,9.3
	C368.4,402.6,368.2,398.1,369.2,393.3 M365.8,393.3L365.8,393.3c-1.4,6.9,0.7,12.2,8.2,12.2c7.2,0,11.7-5.3,13.2-12.2
	c1.4-6.7-1-12-8.2-12C371.8,381.3,367.2,386.6,365.8,393.3"/>
<path class="st0" d="M404.9,384.4L404.9,384.4h5.5c3.4,0.2,3.8,1.9,3.6,3.6c-0.5,1.9-1.7,3.6-5.3,3.6h-5.3L404.9,384.4z
	 M407.5,394.5L407.5,394.5c1.2,0,2.4,0,3.1,1c1,1.2,0.5,3.1,0.2,5.3v4.3h3.4c-0.2-2.2,0-4.8,0-6.9c0.2-2.6,0.2-4.3-2.4-4.8V393
	c2.9-0.5,5-2.6,5.5-5.5c1-4.6-2.6-5.7-6.7-5.7h-8.4l-4.8,23.2h3.1l2.4-10.5H407.5z"/>
<path class="st0" d="M440.4,384.9L440.4,384.9l1.7,11.3h-8.6L440.4,384.9z M427.9,405L427.9,405l3.8-6h10.8l1.2,6h3.6l-4.6-23.2
	h-3.4L424.5,405H427.9z"/>
<polygon class="st0" points="466,384.4 466,384.4 458.1,384.4 458.8,381.8 477.5,381.8 477.1,384.4 469.1,384.4 464.8,405 
	461.7,405 "/>
<polygon class="st0" points="484,405 484,405 489,381.8 492.2,381.8 487.4,405 "/>
<path class="st0" d="M506.1,393.3L506.1,393.3c1-5,3.4-9.3,9.1-9.3c6,0,6.5,4.3,5.5,9.3c-1.2,4.8-3.4,9.3-9.4,9.3
	S504.9,398.1,506.1,393.3 M502.7,393.3L502.7,393.3c-1.4,6.9,0.7,12.2,7.9,12.2c7.4,0,12-5.3,13.4-12.2c1.4-6.7-1-12-8.2-12
	C508.7,381.3,504.2,386.6,502.7,393.3"/>
<polygon class="st0" points="558.3,381.8 558.3,381.8 553.6,405 549.5,405 541.8,385.1 537.5,405 534.6,405 539.6,381.8 544,381.8 
	551.4,400.9 555.5,381.8 "/>
<path class="st1" d="M139,221.5L139,221.5l-4.3,19.9c44.6,9.6,73.1,53.4,63.8,98c-9.6,44.5-53.5,73-98.1,63.5
	c-44.6-9.3-73.1-53.2-63.8-97.7l-7.9-1.7c-10.3,48.9,20.9,97,70,107.5L96,423c55.6,11.7,110.5-23.7,122.3-79.3
	C230.1,287.9,194.6,233.3,139,221.5"/>
<path class="st1" d="M127.9,273.3L127.9,273.3c27.1,5.7,44.4,32.3,38.6,59.4l12,2.4c-7.2,33.5-40.3,55.1-73.9,47.9l-1.7,7.9
	c37.9,8.1,75.3-16,83.4-54.1c8.2-37.8-16.3-75.2-54.2-83.3c-38.1-8.1-75.5,16.3-83.7,54.1l19.9,4.3
	C74.2,284.8,100.8,267.5,127.9,273.3"/>
<path class="st1" d="M133.7,347L133.7,347l4.6,6.7c7.9-5,14.1-13.4,16.3-23.7c4.3-20.4-8.6-40.5-29.3-44.8
	c-20.4-4.3-40.5,8.6-44.8,29c-4.3,20.6,8.9,40.5,29.3,44.8l1.7-7.9l2.6-12c-9.6-1.9-15.6-11.3-13.7-20.6
	c2.2-9.3,11.3-15.3,20.9-13.4l2.4-12c16.1,3.4,26.4,19.2,23,35.2C144.9,336.3,139.9,343,133.7,347"/>
</svg>
